<mxfile host="app.diagrams.net" modified="2024-05-02T12:38:57.911Z" agent="Mozilla/5.0 (Windows NT 10.0; Win64; x64) AppleWebKit/537.36 (KHTML, like Gecko) Chrome/122.0.0.0 Safari/537.36" etag="YDNjmGUBD5ENi-kknQ9g" version="24.2.3" type="device">
  <diagram name="Trang-1" id="zOWf2YR7vJXzXENTinsV">
    <mxGraphModel dx="699" dy="290" grid="1" gridSize="10" guides="1" tooltips="1" connect="1" arrows="1" fold="1" page="1" pageScale="1" pageWidth="827" pageHeight="1169" math="0" shadow="0">
      <root>
        <mxCell id="0" />
        <mxCell id="1" parent="0" />
        <mxCell id="Nx78uAyv4wevGKapW3Wn-2" value="" style="ellipse;whiteSpace=wrap;html=1;aspect=fixed;" vertex="1" parent="1">
          <mxGeometry x="330" y="270" width="40" height="40" as="geometry" />
        </mxCell>
        <mxCell id="Nx78uAyv4wevGKapW3Wn-3" value="" style="ellipse;whiteSpace=wrap;html=1;aspect=fixed;" vertex="1" parent="1">
          <mxGeometry x="330" y="210" width="40" height="40" as="geometry" />
        </mxCell>
        <mxCell id="Nx78uAyv4wevGKapW3Wn-4" value="" style="ellipse;whiteSpace=wrap;html=1;aspect=fixed;" vertex="1" parent="1">
          <mxGeometry x="470" y="210" width="40" height="40" as="geometry" />
        </mxCell>
        <mxCell id="Nx78uAyv4wevGKapW3Wn-5" value="" style="ellipse;whiteSpace=wrap;html=1;aspect=fixed;" vertex="1" parent="1">
          <mxGeometry x="470" y="270" width="40" height="40" as="geometry" />
        </mxCell>
        <mxCell id="Nx78uAyv4wevGKapW3Wn-6" value="" style="ellipse;whiteSpace=wrap;html=1;aspect=fixed;" vertex="1" parent="1">
          <mxGeometry x="540" y="210" width="40" height="40" as="geometry" />
        </mxCell>
        <mxCell id="Nx78uAyv4wevGKapW3Wn-7" value="" style="ellipse;whiteSpace=wrap;html=1;aspect=fixed;" vertex="1" parent="1">
          <mxGeometry x="540" y="270" width="40" height="40" as="geometry" />
        </mxCell>
        <mxCell id="Nx78uAyv4wevGKapW3Wn-8" value="" style="ellipse;whiteSpace=wrap;html=1;aspect=fixed;" vertex="1" parent="1">
          <mxGeometry x="400" y="160" width="40" height="40" as="geometry" />
        </mxCell>
        <mxCell id="Nx78uAyv4wevGKapW3Wn-9" value="" style="ellipse;whiteSpace=wrap;html=1;aspect=fixed;" vertex="1" parent="1">
          <mxGeometry x="400" y="320" width="40" height="40" as="geometry" />
        </mxCell>
        <mxCell id="Nx78uAyv4wevGKapW3Wn-10" value="" style="endArrow=none;html=1;rounded=0;entryX=0;entryY=1;entryDx=0;entryDy=0;exitX=1;exitY=0;exitDx=0;exitDy=0;" edge="1" parent="1" source="Nx78uAyv4wevGKapW3Wn-3" target="Nx78uAyv4wevGKapW3Wn-8">
          <mxGeometry width="50" height="50" relative="1" as="geometry">
            <mxPoint x="350" y="220" as="sourcePoint" />
            <mxPoint x="400" y="170" as="targetPoint" />
          </mxGeometry>
        </mxCell>
        <mxCell id="Nx78uAyv4wevGKapW3Wn-14" value="" style="endArrow=none;html=1;rounded=0;exitX=1;exitY=1;exitDx=0;exitDy=0;entryX=0;entryY=0;entryDx=0;entryDy=0;" edge="1" parent="1" source="Nx78uAyv4wevGKapW3Wn-2" target="Nx78uAyv4wevGKapW3Wn-9">
          <mxGeometry width="50" height="50" relative="1" as="geometry">
            <mxPoint x="360" y="250" as="sourcePoint" />
            <mxPoint x="410" y="200" as="targetPoint" />
          </mxGeometry>
        </mxCell>
        <mxCell id="Nx78uAyv4wevGKapW3Wn-15" value="" style="endArrow=none;html=1;rounded=0;entryX=0.5;entryY=1;entryDx=0;entryDy=0;" edge="1" parent="1" source="Nx78uAyv4wevGKapW3Wn-2" target="Nx78uAyv4wevGKapW3Wn-3">
          <mxGeometry width="50" height="50" relative="1" as="geometry">
            <mxPoint x="360" y="310" as="sourcePoint" />
            <mxPoint x="410" y="260" as="targetPoint" />
          </mxGeometry>
        </mxCell>
        <mxCell id="Nx78uAyv4wevGKapW3Wn-16" value="" style="endArrow=none;html=1;rounded=0;entryX=0;entryY=0;entryDx=0;entryDy=0;exitX=1;exitY=1;exitDx=0;exitDy=0;" edge="1" parent="1" source="Nx78uAyv4wevGKapW3Wn-8" target="Nx78uAyv4wevGKapW3Wn-4">
          <mxGeometry width="50" height="50" relative="1" as="geometry">
            <mxPoint x="360" y="280" as="sourcePoint" />
            <mxPoint x="410" y="230" as="targetPoint" />
          </mxGeometry>
        </mxCell>
        <mxCell id="Nx78uAyv4wevGKapW3Wn-17" value="" style="endArrow=none;html=1;rounded=0;entryX=0.5;entryY=1;entryDx=0;entryDy=0;exitX=0.5;exitY=0;exitDx=0;exitDy=0;" edge="1" parent="1" source="Nx78uAyv4wevGKapW3Wn-5" target="Nx78uAyv4wevGKapW3Wn-4">
          <mxGeometry width="50" height="50" relative="1" as="geometry">
            <mxPoint x="410" y="270" as="sourcePoint" />
            <mxPoint x="460" y="220" as="targetPoint" />
          </mxGeometry>
        </mxCell>
        <mxCell id="Nx78uAyv4wevGKapW3Wn-18" value="" style="endArrow=none;html=1;rounded=0;exitX=1;exitY=0;exitDx=0;exitDy=0;entryX=0;entryY=1;entryDx=0;entryDy=0;" edge="1" parent="1" source="Nx78uAyv4wevGKapW3Wn-9" target="Nx78uAyv4wevGKapW3Wn-5">
          <mxGeometry width="50" height="50" relative="1" as="geometry">
            <mxPoint x="410" y="320" as="sourcePoint" />
            <mxPoint x="460" y="270" as="targetPoint" />
          </mxGeometry>
        </mxCell>
        <mxCell id="Nx78uAyv4wevGKapW3Wn-19" value="" style="endArrow=none;html=1;rounded=0;entryX=0;entryY=0.5;entryDx=0;entryDy=0;exitX=1;exitY=0.5;exitDx=0;exitDy=0;" edge="1" parent="1" source="Nx78uAyv4wevGKapW3Wn-4" target="Nx78uAyv4wevGKapW3Wn-6">
          <mxGeometry width="50" height="50" relative="1" as="geometry">
            <mxPoint x="420" y="270" as="sourcePoint" />
            <mxPoint x="470" y="220" as="targetPoint" />
          </mxGeometry>
        </mxCell>
        <mxCell id="Nx78uAyv4wevGKapW3Wn-21" value="" style="endArrow=none;html=1;rounded=0;entryX=0;entryY=0.5;entryDx=0;entryDy=0;exitX=1;exitY=0.5;exitDx=0;exitDy=0;" edge="1" parent="1" source="Nx78uAyv4wevGKapW3Wn-5" target="Nx78uAyv4wevGKapW3Wn-7">
          <mxGeometry width="50" height="50" relative="1" as="geometry">
            <mxPoint x="420" y="270" as="sourcePoint" />
            <mxPoint x="470" y="220" as="targetPoint" />
          </mxGeometry>
        </mxCell>
        <mxCell id="Nx78uAyv4wevGKapW3Wn-22" value="6" style="text;html=1;align=center;verticalAlign=middle;resizable=0;points=[];autosize=1;strokeColor=none;fillColor=none;" vertex="1" parent="1">
          <mxGeometry x="355" y="178" width="30" height="30" as="geometry" />
        </mxCell>
        <mxCell id="Nx78uAyv4wevGKapW3Wn-23" value="12" style="text;html=1;align=center;verticalAlign=middle;resizable=0;points=[];autosize=1;strokeColor=none;fillColor=none;" vertex="1" parent="1">
          <mxGeometry x="440" y="178" width="40" height="30" as="geometry" />
        </mxCell>
        <mxCell id="Nx78uAyv4wevGKapW3Wn-24" value="" style="endArrow=none;html=1;rounded=0;exitX=1;exitY=0.5;exitDx=0;exitDy=0;entryX=0;entryY=0.5;entryDx=0;entryDy=0;" edge="1" parent="1" source="Nx78uAyv4wevGKapW3Wn-3" target="Nx78uAyv4wevGKapW3Wn-4">
          <mxGeometry width="50" height="50" relative="1" as="geometry">
            <mxPoint x="420" y="270" as="sourcePoint" />
            <mxPoint x="470" y="220" as="targetPoint" />
          </mxGeometry>
        </mxCell>
        <mxCell id="Nx78uAyv4wevGKapW3Wn-25" value="5" style="text;html=1;align=center;verticalAlign=middle;resizable=0;points=[];autosize=1;strokeColor=none;fillColor=none;" vertex="1" parent="1">
          <mxGeometry x="405" y="208" width="30" height="30" as="geometry" />
        </mxCell>
        <mxCell id="Nx78uAyv4wevGKapW3Wn-26" value="" style="endArrow=none;html=1;rounded=0;exitX=1;exitY=1;exitDx=0;exitDy=0;entryX=0.5;entryY=0;entryDx=0;entryDy=0;" edge="1" parent="1" source="Nx78uAyv4wevGKapW3Wn-3" target="Nx78uAyv4wevGKapW3Wn-9">
          <mxGeometry width="50" height="50" relative="1" as="geometry">
            <mxPoint x="420" y="270" as="sourcePoint" />
            <mxPoint x="470" y="220" as="targetPoint" />
          </mxGeometry>
        </mxCell>
        <mxCell id="Nx78uAyv4wevGKapW3Wn-27" value="8" style="text;html=1;align=center;verticalAlign=middle;resizable=0;points=[];autosize=1;strokeColor=none;fillColor=none;" vertex="1" parent="1">
          <mxGeometry x="385" y="258" width="30" height="30" as="geometry" />
        </mxCell>
        <mxCell id="Nx78uAyv4wevGKapW3Wn-29" value="3" style="text;html=1;align=center;verticalAlign=middle;resizable=0;points=[];autosize=1;strokeColor=none;fillColor=none;" vertex="1" parent="1">
          <mxGeometry x="365" y="308" width="30" height="30" as="geometry" />
        </mxCell>
        <mxCell id="Nx78uAyv4wevGKapW3Wn-30" value="14" style="text;html=1;align=center;verticalAlign=middle;resizable=0;points=[];autosize=1;strokeColor=none;fillColor=none;" vertex="1" parent="1">
          <mxGeometry x="310" y="250" width="40" height="30" as="geometry" />
        </mxCell>
        <mxCell id="Nx78uAyv4wevGKapW3Wn-31" value="7" style="text;html=1;align=center;verticalAlign=middle;resizable=0;points=[];autosize=1;strokeColor=none;fillColor=none;" vertex="1" parent="1">
          <mxGeometry x="455" y="248" width="30" height="30" as="geometry" />
        </mxCell>
        <mxCell id="Nx78uAyv4wevGKapW3Wn-32" value="9" style="text;html=1;align=center;verticalAlign=middle;resizable=0;points=[];autosize=1;strokeColor=none;fillColor=none;" vertex="1" parent="1">
          <mxGeometry x="510" y="200" width="30" height="30" as="geometry" />
        </mxCell>
        <mxCell id="Nx78uAyv4wevGKapW3Wn-33" value="15" style="text;html=1;align=center;verticalAlign=middle;resizable=0;points=[];autosize=1;strokeColor=none;fillColor=none;" vertex="1" parent="1">
          <mxGeometry x="505" y="258" width="40" height="30" as="geometry" />
        </mxCell>
        <mxCell id="Nx78uAyv4wevGKapW3Wn-34" value="10" style="text;html=1;align=center;verticalAlign=middle;resizable=0;points=[];autosize=1;strokeColor=none;fillColor=none;" vertex="1" parent="1">
          <mxGeometry x="440" y="308" width="40" height="30" as="geometry" />
        </mxCell>
      </root>
    </mxGraphModel>
  </diagram>
</mxfile>
